<?xml version="1.0" encoding="utf-8"?>
<svg xmlns="http://www.w3.org/2000/svg" xmlns:xlink="http://www.w3.org/1999/xlink" style="margin: auto; background: none; display: block; shape-rendering: auto;" width="284px" height="284px" viewBox="0 0 100 100" preserveAspectRatio="xMidYMid">
<g transform="rotate(0 50 50)">
  <rect x="47" y="20" rx="3" ry="7.68" width="6" height="16" fill="#df1317">
    <animate attributeName="opacity" values="1;0" keyTimes="0;1" dur="1.6393442622950818s" begin="-1.5300546448087429s" repeatCount="indefinite"></animate>
  </rect>
</g><g transform="rotate(24 50 50)">
  <rect x="47" y="20" rx="3" ry="7.68" width="6" height="16" fill="#e4934b">
    <animate attributeName="opacity" values="1;0" keyTimes="0;1" dur="1.6393442622950818s" begin="-1.420765027322404s" repeatCount="indefinite"></animate>
  </rect>
</g><g transform="rotate(48 50 50)">
  <rect x="47" y="20" rx="3" ry="7.68" width="6" height="16" fill="#e2bb8b">
    <animate attributeName="opacity" values="1;0" keyTimes="0;1" dur="1.6393442622950818s" begin="-1.3114754098360653s" repeatCount="indefinite"></animate>
  </rect>
</g><g transform="rotate(72 50 50)">
  <rect x="47" y="20" rx="3" ry="7.68" width="6" height="16" fill="#e1e7e7">
    <animate attributeName="opacity" values="1;0" keyTimes="0;1" dur="1.6393442622950818s" begin="-1.2021857923497266s" repeatCount="indefinite"></animate>
  </rect>
</g><g transform="rotate(96 50 50)">
  <rect x="47" y="20" rx="3" ry="7.68" width="6" height="16" fill="#91bcc6">
    <animate attributeName="opacity" values="1;0" keyTimes="0;1" dur="1.6393442622950818s" begin="-1.0928961748633876s" repeatCount="indefinite"></animate>
  </rect>
</g><g transform="rotate(120 50 50)">
  <rect x="47" y="20" rx="3" ry="7.68" width="6" height="16" fill="#07abcc">
    <animate attributeName="opacity" values="1;0" keyTimes="0;1" dur="1.6393442622950818s" begin="-0.9836065573770489s" repeatCount="indefinite"></animate>
  </rect>
</g><g transform="rotate(144 50 50)">
  <rect x="47" y="20" rx="3" ry="7.68" width="6" height="16" fill="#0a69aa">
    <animate attributeName="opacity" values="1;0" keyTimes="0;1" dur="1.6393442622950818s" begin="-0.8743169398907101s" repeatCount="indefinite"></animate>
  </rect>
</g><g transform="rotate(168 50 50)">
  <rect x="47" y="20" rx="3" ry="7.68" width="6" height="16" fill="#194645">
    <animate attributeName="opacity" values="1;0" keyTimes="0;1" dur="1.6393442622950818s" begin="-0.7650273224043714s" repeatCount="indefinite"></animate>
  </rect>
</g><g transform="rotate(192 50 50)">
  <rect x="47" y="20" rx="3" ry="7.68" width="6" height="16" fill="#df1317">
    <animate attributeName="opacity" values="1;0" keyTimes="0;1" dur="1.6393442622950818s" begin="-0.6557377049180326s" repeatCount="indefinite"></animate>
  </rect>
</g><g transform="rotate(216 50 50)">
  <rect x="47" y="20" rx="3" ry="7.68" width="6" height="16" fill="#e4934b">
    <animate attributeName="opacity" values="1;0" keyTimes="0;1" dur="1.6393442622950818s" begin="-0.5464480874316938s" repeatCount="indefinite"></animate>
  </rect>
</g><g transform="rotate(240 50 50)">
  <rect x="47" y="20" rx="3" ry="7.68" width="6" height="16" fill="#e2bb8b">
    <animate attributeName="opacity" values="1;0" keyTimes="0;1" dur="1.6393442622950818s" begin="-0.43715846994535507s" repeatCount="indefinite"></animate>
  </rect>
</g><g transform="rotate(264 50 50)">
  <rect x="47" y="20" rx="3" ry="7.68" width="6" height="16" fill="#e1e7e7">
    <animate attributeName="opacity" values="1;0" keyTimes="0;1" dur="1.6393442622950818s" begin="-0.3278688524590163s" repeatCount="indefinite"></animate>
  </rect>
</g><g transform="rotate(288 50 50)">
  <rect x="47" y="20" rx="3" ry="7.68" width="6" height="16" fill="#91bcc6">
    <animate attributeName="opacity" values="1;0" keyTimes="0;1" dur="1.6393442622950818s" begin="-0.21857923497267753s" repeatCount="indefinite"></animate>
  </rect>
</g><g transform="rotate(312 50 50)">
  <rect x="47" y="20" rx="3" ry="7.68" width="6" height="16" fill="#07abcc">
    <animate attributeName="opacity" values="1;0" keyTimes="0;1" dur="1.6393442622950818s" begin="-0.10928961748633877s" repeatCount="indefinite"></animate>
  </rect>
</g><g transform="rotate(336 50 50)">
  <rect x="47" y="20" rx="3" ry="7.68" width="6" height="16" fill="#0a69aa">
    <animate attributeName="opacity" values="1;0" keyTimes="0;1" dur="1.6393442622950818s" begin="0s" repeatCount="indefinite"></animate>
  </rect>
</g>
<!-- [ldio] generated by https://loading.io/ --></svg>